<?xml version="1.0" encoding="UTF-8" standalone="no"?>
<!DOCTYPE svg PUBLIC "-//W3C//DTD SVG 1.1//EN"
 "http://www.w3.org/Graphics/SVG/1.1/DTD/svg11.dtd">
<!-- Generated by graphviz version 2.40.1 (20161225.0304)
 -->
<!-- Title: MerkleTree Pages: 1 -->
<svg width="891pt" height="385pt"
 viewBox="0.00 0.00 890.50 384.81" xmlns="http://www.w3.org/2000/svg" xmlns:xlink="http://www.w3.org/1999/xlink">
<g id="graph0" class="graph" transform="scale(1 1) rotate(0) translate(4 380.8112)">
<title>MerkleTree</title>
<polygon fill="#ffffff" stroke="transparent" points="-4,4 -4,-380.8112 886.5,-380.8112 886.5,4 -4,4"/>
<!-- Foo -->
<g id="node1" class="node">
<title>Foo</title>
<ellipse fill="none" stroke="#000000" cx="47" cy="-346.4056" rx="35.2113" ry="30.3115"/>
<text text-anchor="middle" x="47" y="-342.7056" font-family="Times,serif" font-size="14.00" fill="#000000">Foo</text>
</g>
<!-- 8 -->
<g id="node2" class="node">
<title>8</title>
<polygon fill="none" stroke="#000000" points="94,-280 0,-280 0,-237 94,-237 94,-280"/>
<text text-anchor="middle" x="47" y="-254.8" font-family="Times,serif" font-size="14.00" fill="#000000">7b50…c81f</text>
</g>
<!-- Foo&#45;&gt;8 -->
<g id="edge1" class="edge">
<title>Foo&#45;&gt;8</title>
<path fill="none" stroke="#000000" d="M47,-315.6605C47,-307.4448 47,-298.5504 47,-290.2802"/>
<polygon fill="#000000" stroke="#000000" points="50.5001,-290.2365 47,-280.2365 43.5001,-290.2366 50.5001,-290.2365"/>
</g>
<!-- 4 -->
<g id="node3" class="node">
<title>4</title>
<polygon fill="none" stroke="#000000" points="206.5,-201 113.5,-201 113.5,-158 206.5,-158 206.5,-201"/>
<text text-anchor="middle" x="160" y="-175.8" font-family="Times,serif" font-size="14.00" fill="#000000">e9e0…f637</text>
</g>
<!-- 8&#45;&gt;4 -->
<g id="edge2" class="edge">
<title>8&#45;&gt;4</title>
<path fill="none" stroke="#000000" d="M77.8777,-236.9129C91.0817,-227.6818 106.6544,-216.7947 120.6695,-206.9965"/>
<polygon fill="#000000" stroke="#000000" points="122.9693,-209.6593 129.1596,-201.061 118.9584,-203.9223 122.9693,-209.6593"/>
</g>
<!-- 9 -->
<g id="node5" class="node">
<title>9</title>
<polygon fill="none" stroke="#000000" points="208,-280 112,-280 112,-237 208,-237 208,-280"/>
<text text-anchor="middle" x="160" y="-254.8" font-family="Times,serif" font-size="14.00" fill="#000000">03c7…6406</text>
</g>
<!-- 8&#45;&gt;9 -->
<g id="edge4" class="edge">
<title>8&#45;&gt;9</title>
</g>
<!-- 2 -->
<g id="node20" class="node">
<title>2</title>
<polygon fill="none" stroke="#000000" points="377.5,-122 280.5,-122 280.5,-79 377.5,-79 377.5,-122"/>
<text text-anchor="middle" x="329" y="-96.8" font-family="Times,serif" font-size="14.00" fill="#000000">7799…9592</text>
</g>
<!-- 4&#45;&gt;2 -->
<g id="edge25" class="edge">
<title>4&#45;&gt;2</title>
<path fill="none" stroke="#000000" d="M206.18,-157.9129C227.0454,-148.1593 251.8656,-136.5569 273.7143,-126.3436"/>
<polygon fill="#000000" stroke="#000000" points="275.2989,-129.4665 282.8758,-122.061 272.3346,-123.1251 275.2989,-129.4665"/>
</g>
<!-- Bar -->
<g id="node4" class="node">
<title>Bar</title>
<ellipse fill="none" stroke="#000000" cx="160" cy="-346.4056" rx="33.8824" ry="30.3115"/>
<text text-anchor="middle" x="160" y="-342.7056" font-family="Times,serif" font-size="14.00" fill="#000000">Bar</text>
</g>
<!-- Bar&#45;&gt;9 -->
<g id="edge3" class="edge">
<title>Bar&#45;&gt;9</title>
<path fill="none" stroke="#000000" d="M160,-315.6605C160,-307.4448 160,-298.5504 160,-290.2802"/>
<polygon fill="#000000" stroke="#000000" points="163.5001,-290.2365 160,-280.2365 156.5001,-290.2366 163.5001,-290.2365"/>
</g>
<!-- 9&#45;&gt;4 -->
<g id="edge5" class="edge">
<title>9&#45;&gt;4</title>
<path fill="none" stroke="#000000" d="M160,-236.9129C160,-228.9881 160,-219.8428 160,-211.2138"/>
<polygon fill="#000000" stroke="#000000" points="163.5001,-211.061 160,-201.061 156.5001,-211.061 163.5001,-211.061"/>
</g>
<!-- 10 -->
<g id="node7" class="node">
<title>10</title>
<polygon fill="none" stroke="#000000" points="319.5,-280 226.5,-280 226.5,-237 319.5,-237 319.5,-280"/>
<text text-anchor="middle" x="273" y="-254.8" font-family="Times,serif" font-size="14.00" fill="#000000">6d5f…2ae0</text>
</g>
<!-- 9&#45;&gt;10 -->
<g id="edge7" class="edge">
<title>9&#45;&gt;10</title>
</g>
<!-- Baz -->
<g id="node6" class="node">
<title>Baz</title>
<ellipse fill="none" stroke="#000000" cx="273" cy="-346.4056" rx="35.2113" ry="30.3115"/>
<text text-anchor="middle" x="273" y="-342.7056" font-family="Times,serif" font-size="14.00" fill="#000000">Baz</text>
</g>
<!-- Baz&#45;&gt;10 -->
<g id="edge6" class="edge">
<title>Baz&#45;&gt;10</title>
<path fill="none" stroke="#000000" d="M273,-315.6605C273,-307.4448 273,-298.5504 273,-290.2802"/>
<polygon fill="#000000" stroke="#000000" points="276.5001,-290.2365 273,-280.2365 269.5001,-290.2366 276.5001,-290.2365"/>
</g>
<!-- 5 -->
<g id="node8" class="node">
<title>5</title>
<polygon fill="none" stroke="#000000" points="375,-201 283,-201 283,-158 375,-158 375,-201"/>
<text text-anchor="middle" x="329" y="-175.8" font-family="Times,serif" font-size="14.00" fill="#000000">f277…7fd5</text>
</g>
<!-- 10&#45;&gt;5 -->
<g id="edge8" class="edge">
<title>10&#45;&gt;5</title>
<path fill="none" stroke="#000000" d="M288.3022,-236.9129C294.352,-228.3785 301.405,-218.4286 307.9239,-209.2324"/>
<polygon fill="#000000" stroke="#000000" points="310.7886,-211.2433 313.7163,-201.061 305.0778,-207.1952 310.7886,-211.2433"/>
</g>
<!-- 11 -->
<g id="node10" class="node">
<title>11</title>
<polygon fill="none" stroke="#000000" points="432.5,-280 337.5,-280 337.5,-237 432.5,-237 432.5,-280"/>
<text text-anchor="middle" x="385" y="-254.8" font-family="Times,serif" font-size="14.00" fill="#000000">d5d1…3cda</text>
</g>
<!-- 10&#45;&gt;11 -->
<g id="edge10" class="edge">
<title>10&#45;&gt;11</title>
</g>
<!-- 5&#45;&gt;2 -->
<g id="edge24" class="edge">
<title>5&#45;&gt;2</title>
<path fill="none" stroke="#000000" d="M329,-157.9129C329,-149.9881 329,-140.8428 329,-132.2138"/>
<polygon fill="#000000" stroke="#000000" points="332.5001,-132.061 329,-122.061 325.5001,-132.061 332.5001,-132.061"/>
</g>
<!-- Qux -->
<g id="node9" class="node">
<title>Qux</title>
<ellipse fill="none" stroke="#000000" cx="385" cy="-346.4056" rx="36.5405" ry="30.3115"/>
<text text-anchor="middle" x="385" y="-342.7056" font-family="Times,serif" font-size="14.00" fill="#000000">Qux</text>
</g>
<!-- Qux&#45;&gt;11 -->
<g id="edge9" class="edge">
<title>Qux&#45;&gt;11</title>
<path fill="none" stroke="#000000" d="M385,-315.6605C385,-307.4448 385,-298.5504 385,-290.2802"/>
<polygon fill="#000000" stroke="#000000" points="388.5001,-290.2365 385,-280.2365 381.5001,-290.2366 388.5001,-290.2365"/>
</g>
<!-- 11&#45;&gt;5 -->
<g id="edge11" class="edge">
<title>11&#45;&gt;5</title>
<path fill="none" stroke="#000000" d="M369.6978,-236.9129C363.648,-228.3785 356.595,-218.4286 350.0761,-209.2324"/>
<polygon fill="#000000" stroke="#000000" points="352.9222,-207.1952 344.2837,-201.061 347.2114,-211.2433 352.9222,-207.1952"/>
</g>
<!-- 12 -->
<g id="node12" class="node">
<title>12</title>
<polygon fill="none" stroke="#000000" points="543.5,-280 450.5,-280 450.5,-237 543.5,-237 543.5,-280"/>
<text text-anchor="middle" x="497" y="-254.8" font-family="Times,serif" font-size="14.00" fill="#000000">2fec…1151</text>
</g>
<!-- 11&#45;&gt;12 -->
<g id="edge13" class="edge">
<title>11&#45;&gt;12</title>
</g>
<!-- Quux -->
<g id="node11" class="node">
<title>Quux</title>
<ellipse fill="none" stroke="#000000" cx="497" cy="-346.4056" rx="41.9398" ry="30.3115"/>
<text text-anchor="middle" x="497" y="-342.7056" font-family="Times,serif" font-size="14.00" fill="#000000">Quux</text>
</g>
<!-- Quux&#45;&gt;12 -->
<g id="edge12" class="edge">
<title>Quux&#45;&gt;12</title>
<path fill="none" stroke="#000000" d="M497,-315.6605C497,-307.4448 497,-298.5504 497,-290.2802"/>
<polygon fill="#000000" stroke="#000000" points="500.5001,-290.2365 497,-280.2365 493.5001,-290.2366 500.5001,-290.2365"/>
</g>
<!-- 6 -->
<g id="node13" class="node">
<title>6</title>
<polygon fill="none" stroke="#000000" points="598.5,-201 501.5,-201 501.5,-158 598.5,-158 598.5,-201"/>
<text text-anchor="middle" x="550" y="-175.8" font-family="Times,serif" font-size="14.00" fill="#000000">3705…4377</text>
</g>
<!-- 12&#45;&gt;6 -->
<g id="edge14" class="edge">
<title>12&#45;&gt;6</title>
<path fill="none" stroke="#000000" d="M511.4825,-236.9129C517.1497,-228.4656 523.7472,-218.6315 529.8639,-209.5142"/>
<polygon fill="#000000" stroke="#000000" points="532.8703,-211.3153 535.535,-201.061 527.0572,-207.4154 532.8703,-211.3153"/>
</g>
<!-- 13 -->
<g id="node15" class="node">
<title>13</title>
<polygon fill="none" stroke="#000000" points="652.5,-280 561.5,-280 561.5,-237 652.5,-237 652.5,-280"/>
<text text-anchor="middle" x="607" y="-254.8" font-family="Times,serif" font-size="14.00" fill="#000000">aff2…62e5</text>
</g>
<!-- 12&#45;&gt;13 -->
<g id="edge16" class="edge">
<title>12&#45;&gt;13</title>
</g>
<!-- 3 -->
<g id="node19" class="node">
<title>3</title>
<polygon fill="none" stroke="#000000" points="597.5,-122 502.5,-122 502.5,-79 597.5,-79 597.5,-122"/>
<text text-anchor="middle" x="550" y="-96.8" font-family="Times,serif" font-size="14.00" fill="#000000">5082…d5f0</text>
</g>
<!-- 6&#45;&gt;3 -->
<g id="edge23" class="edge">
<title>6&#45;&gt;3</title>
<path fill="none" stroke="#000000" d="M550,-157.9129C550,-149.9881 550,-140.8428 550,-132.2138"/>
<polygon fill="#000000" stroke="#000000" points="553.5001,-132.061 550,-122.061 546.5001,-132.061 553.5001,-132.061"/>
</g>
<!-- Quuz -->
<g id="node14" class="node">
<title>Quuz</title>
<ellipse fill="none" stroke="#000000" cx="607" cy="-346.4056" rx="41.0244" ry="30.3115"/>
<text text-anchor="middle" x="607" y="-342.7056" font-family="Times,serif" font-size="14.00" fill="#000000">Quuz</text>
</g>
<!-- Quuz&#45;&gt;13 -->
<g id="edge15" class="edge">
<title>Quuz&#45;&gt;13</title>
<path fill="none" stroke="#000000" d="M607,-315.6605C607,-307.4448 607,-298.5504 607,-290.2802"/>
<polygon fill="#000000" stroke="#000000" points="610.5001,-290.2365 607,-280.2365 603.5001,-290.2366 610.5001,-290.2365"/>
</g>
<!-- 13&#45;&gt;6 -->
<g id="edge17" class="edge">
<title>13&#45;&gt;6</title>
<path fill="none" stroke="#000000" d="M591.4245,-236.9129C585.2667,-228.3785 578.0877,-218.4286 571.4525,-209.2324"/>
<polygon fill="#000000" stroke="#000000" points="574.2462,-207.1226 565.5567,-201.061 568.5695,-211.2184 574.2462,-207.1226"/>
</g>
<!-- 14 -->
<g id="node16" class="node">
<title>14</title>
<polygon fill="none" stroke="#000000" points="767.5,-280 670.5,-280 670.5,-237 767.5,-237 767.5,-280"/>
<text text-anchor="middle" x="719" y="-254.8" font-family="Times,serif" font-size="14.00" fill="#000000">0000…0000</text>
</g>
<!-- 13&#45;&gt;14 -->
<g id="edge18" class="edge">
<title>13&#45;&gt;14</title>
</g>
<!-- 7 -->
<g id="node17" class="node">
<title>7</title>
<polygon fill="none" stroke="#000000" points="767,-201 671,-201 671,-158 767,-158 767,-201"/>
<text text-anchor="middle" x="719" y="-175.8" font-family="Times,serif" font-size="14.00" fill="#000000">0eb9…9761</text>
</g>
<!-- 14&#45;&gt;7 -->
<g id="edge19" class="edge">
<title>14&#45;&gt;7</title>
<path fill="none" stroke="#000000" d="M719,-236.9129C719,-228.9881 719,-219.8428 719,-211.2138"/>
<polygon fill="#000000" stroke="#000000" points="722.5001,-211.061 719,-201.061 715.5001,-211.061 722.5001,-211.061"/>
</g>
<!-- 15 -->
<g id="node18" class="node">
<title>15</title>
<polygon fill="none" stroke="#000000" points="882.5,-280 785.5,-280 785.5,-237 882.5,-237 882.5,-280"/>
<text text-anchor="middle" x="834" y="-254.8" font-family="Times,serif" font-size="14.00" fill="#000000">0000…0000</text>
</g>
<!-- 14&#45;&gt;15 -->
<g id="edge20" class="edge">
<title>14&#45;&gt;15</title>
</g>
<!-- 7&#45;&gt;3 -->
<g id="edge22" class="edge">
<title>7&#45;&gt;3</title>
<path fill="none" stroke="#000000" d="M672.82,-157.9129C651.9546,-148.1593 627.1344,-136.5569 605.2857,-126.3436"/>
<polygon fill="#000000" stroke="#000000" points="606.6654,-123.1251 596.1242,-122.061 603.7011,-129.4665 606.6654,-123.1251"/>
</g>
<!-- 15&#45;&gt;7 -->
<g id="edge21" class="edge">
<title>15&#45;&gt;7</title>
<path fill="none" stroke="#000000" d="M802.5757,-236.9129C789.138,-227.6818 773.2898,-216.7947 759.0266,-206.9965"/>
<polygon fill="#000000" stroke="#000000" points="760.6106,-203.8384 750.3863,-201.061 756.647,-209.6082 760.6106,-203.8384"/>
</g>
<!-- 1 -->
<g id="node21" class="node">
<title>1</title>
<polygon fill="none" stroke="#000000" points="489.5,-43 392.5,-43 392.5,0 489.5,0 489.5,-43"/>
<text text-anchor="middle" x="441" y="-17.8" font-family="Times,serif" font-size="14.00" fill="#000000">9db4…516d</text>
</g>
<!-- 3&#45;&gt;1 -->
<g id="edge26" class="edge">
<title>3&#45;&gt;1</title>
<path fill="none" stroke="#000000" d="M520.2153,-78.9129C507.4787,-69.6818 492.4573,-58.7947 478.9382,-48.9965"/>
<polygon fill="#000000" stroke="#000000" points="480.8997,-46.0955 470.7487,-43.061 476.7917,-51.7634 480.8997,-46.0955"/>
</g>
<!-- 2&#45;&gt;1 -->
<g id="edge27" class="edge">
<title>2&#45;&gt;1</title>
<path fill="none" stroke="#000000" d="M359.6045,-78.9129C372.6916,-69.6818 388.1265,-58.7947 402.0176,-48.9965"/>
<polygon fill="#000000" stroke="#000000" points="404.2782,-51.6851 410.4325,-43.061 400.2434,-45.9649 404.2782,-51.6851"/>
</g>
</g>
</svg>
